<svg width="45" height="40" viewBox="0 0 45 40" fill="none" xmlns="http://www.w3.org/2000/svg">
<path d="M39.8913 39.3754H5.1087C2.29195 39.3754 0 37.1344 0 34.3803V5.54595C0 2.7918 2.29195 0.550781 5.1087 0.550781H39.8913C42.708 0.550781 45 2.7918 45 5.54595V34.3803C45 37.1344 42.708 39.3754 39.8913 39.3754ZM5.1087 2.0387C3.13094 2.0387 1.52174 3.61215 1.52174 5.54595V34.3803C1.52174 36.3141 3.13094 37.8875 5.1087 37.8875H39.8913C41.8691 37.8875 43.4783 36.3141 43.4783 34.3803V5.54595C43.4783 3.61215 41.8691 2.0387 39.8913 2.0387H5.1087Z" fill="#60E1CB"/>
</svg>
