<svg width="892" height="210" viewBox="0 0 892 210" fill="none" xmlns="http://www.w3.org/2000/svg">
<path d="M21.0406 126.335L14.8486 138.767L14.0566 126.335H11.2246L12.4246 143.351H15.4246L21.8326 130.487L23.2486 143.351H26.1046L34.0966 126.335H31.0966L25.4326 138.863L24.0166 126.335H21.0406ZM34.7818 136.223C35.1898 134.855 36.2938 133.631 38.0458 133.631C39.8218 133.631 40.4218 134.855 40.4218 135.863C40.4218 135.983 40.3978 136.175 40.3978 136.223H34.7818ZM42.7978 138.263C42.9658 137.735 43.1338 136.919 43.1338 136.127C43.1338 133.319 41.3338 131.303 38.1178 131.303C34.9258 131.303 31.7818 133.967 31.7818 138.359C31.7818 141.743 34.2298 143.711 37.1338 143.711C39.7258 143.711 41.5258 142.343 42.3178 140.807L40.1818 139.631C39.7258 140.519 38.7418 141.335 37.2058 141.335C35.5978 141.335 34.4458 140.183 34.4458 138.527C34.4458 138.431 34.4458 138.383 34.4698 138.263H42.7978ZM52.0359 140.711C52.0359 142.439 53.2119 143.495 55.1079 143.495C55.8039 143.495 56.2839 143.351 56.4999 143.255L56.9559 141.023C56.6679 141.071 56.4279 141.095 56.1399 141.095C55.1799 141.095 54.8679 140.663 54.8679 140.111C54.8679 139.967 54.8919 139.775 54.9399 139.583L56.0919 134.135H58.3959L58.9239 131.663H56.5959L57.3879 128.087H54.8679L54.5079 129.767C54.2439 130.943 53.5239 131.663 52.1799 131.663H51.7479L51.2199 134.135H53.3319L52.2279 139.295C52.0839 139.919 52.0359 140.423 52.0359 140.711ZM68.0501 134.495L68.6501 131.615C68.4101 131.567 68.1221 131.543 67.8101 131.543C66.6821 131.543 65.1701 131.927 64.2821 133.271C64.4021 132.815 64.4501 131.999 64.4501 131.663H61.7621C61.7621 131.759 61.7381 132.575 61.4981 133.679L59.4581 143.351H62.1941L63.3701 137.879C63.9461 135.239 65.4341 134.375 67.0661 134.375C67.3781 134.375 67.7141 134.423 68.0501 134.495ZM71.7359 127.679C71.7359 128.567 72.4079 129.287 73.3679 129.287C74.3759 129.287 75.3599 128.447 75.3599 127.295C75.3599 126.407 74.6879 125.711 73.7279 125.711C72.6959 125.711 71.7359 126.575 71.7359 127.679ZM71.5919 143.351L74.0879 131.663H71.3279L68.8319 143.351H71.5919ZM78.4458 136.223C78.8538 134.855 79.9578 133.631 81.7098 133.631C83.4858 133.631 84.0858 134.855 84.0858 135.863C84.0858 135.983 84.0618 136.175 84.0618 136.223H78.4458ZM86.4618 138.263C86.6298 137.735 86.7978 136.919 86.7978 136.127C86.7978 133.319 84.9978 131.303 81.7818 131.303C78.5898 131.303 75.4458 133.967 75.4458 138.359C75.4458 141.743 77.8938 143.711 80.7978 143.711C83.3898 143.711 85.1898 142.343 85.9818 140.807L83.8458 139.631C83.3898 140.519 82.4058 141.335 80.8698 141.335C79.2618 141.335 78.1098 140.183 78.1098 138.527C78.1098 138.431 78.1098 138.383 78.1338 138.263H86.4618ZM102.018 125.975H99.2581L97.7701 133.007C97.3381 132.239 96.2821 131.351 94.2901 131.351C90.8101 131.351 88.2661 134.519 88.2661 138.407C88.2661 141.335 89.9461 143.567 92.9221 143.567C94.3861 143.567 95.4661 142.775 96.1381 141.911C96.1141 142.127 96.0901 142.415 96.0901 142.751C96.0901 142.895 96.0901 143.135 96.1141 143.351H98.6821C98.6581 143.183 98.6581 142.847 98.6581 142.775C98.6581 142.247 98.7301 141.527 98.9221 140.567L102.018 125.975ZM94.5061 133.799C96.1141 133.799 96.9541 134.927 96.9541 136.511C96.9541 139.295 95.4181 141.191 93.5461 141.191C91.9381 141.191 91.0501 140.039 91.0501 138.335C91.0501 136.223 92.2501 133.799 94.5061 133.799ZM107.848 139.727C107.848 141.119 108.712 143.711 112.36 143.711C115.432 143.711 116.776 141.623 116.776 139.943C116.776 138.551 115.96 137.351 114.256 136.607L112.72 135.935C112.216 135.719 111.904 135.359 111.904 134.783C111.904 134.063 112.504 133.463 113.488 133.463C115.024 133.463 115.432 134.567 115.48 135.287L117.904 134.783C117.832 133.511 116.944 131.303 113.632 131.303C110.968 131.303 109.264 133.127 109.264 135.143C109.264 136.511 109.984 137.591 111.568 138.287L113.056 138.935C113.752 139.247 114.04 139.703 114.04 140.183C114.04 140.855 113.512 141.527 112.384 141.527C110.968 141.527 110.248 140.495 110.248 139.271L107.848 139.727ZM121.993 136.223C122.401 134.855 123.505 133.631 125.257 133.631C127.033 133.631 127.633 134.855 127.633 135.863C127.633 135.983 127.609 136.175 127.609 136.223H121.993ZM130.009 138.263C130.177 137.735 130.345 136.919 130.345 136.127C130.345 133.319 128.545 131.303 125.329 131.303C122.137 131.303 118.993 133.967 118.993 138.359C118.993 141.743 121.441 143.711 124.345 143.711C126.937 143.711 128.737 142.343 129.529 140.807L127.393 139.631C126.937 140.519 125.953 141.335 124.417 141.335C122.809 141.335 121.657 140.183 121.657 138.527C121.657 138.431 121.657 138.383 121.681 138.263H130.009ZM143.584 131.663H140.488L135.952 140.015L134.8 131.663H131.944L134.008 143.351H136.744L143.584 131.663ZM146.227 136.223C146.635 134.855 147.739 133.631 149.491 133.631C151.267 133.631 151.867 134.855 151.867 135.863C151.867 135.983 151.843 136.175 151.843 136.223H146.227ZM154.243 138.263C154.411 137.735 154.579 136.919 154.579 136.127C154.579 133.319 152.779 131.303 149.563 131.303C146.371 131.303 143.227 133.967 143.227 138.359C143.227 141.743 145.675 143.711 148.579 143.711C151.171 143.711 152.971 142.343 153.763 140.807L151.627 139.631C151.171 140.519 150.187 141.335 148.651 141.335C147.043 141.335 145.891 140.183 145.891 138.527C145.891 138.431 145.891 138.383 145.915 138.263H154.243ZM164.495 134.495L165.095 131.615C164.855 131.567 164.567 131.543 164.255 131.543C163.127 131.543 161.615 131.927 160.727 133.271C160.847 132.815 160.895 131.999 160.895 131.663H158.207C158.207 131.759 158.183 132.575 157.943 133.679L155.903 143.351H158.639L159.815 137.879C160.391 135.239 161.879 134.375 163.511 134.375C163.823 134.375 164.159 134.423 164.495 134.495ZM171.545 133.799C173.153 133.799 173.993 134.927 173.993 136.511C173.993 139.295 172.457 141.191 170.585 141.191C168.977 141.191 168.089 140.039 168.089 138.335C168.089 136.223 169.289 133.799 171.545 133.799ZM175.145 131.663L174.833 133.055C174.449 132.311 173.417 131.351 171.329 131.351C167.849 131.351 165.305 134.519 165.305 138.407C165.305 141.335 166.985 143.567 169.961 143.567C171.425 143.567 172.505 142.775 173.177 141.911C173.129 142.439 173.129 142.583 173.129 142.871C173.129 143.015 173.129 143.135 173.153 143.351H175.745C175.721 143.087 175.721 142.895 175.721 142.775C175.721 142.007 175.817 141.287 175.961 140.567L177.857 131.663H175.145ZM181.654 143.351L185.35 125.975H182.59L178.894 143.351H181.654ZM197.959 133.799C199.567 133.799 200.407 134.927 200.407 136.511C200.407 139.295 198.871 141.191 196.999 141.191C195.391 141.191 194.503 140.039 194.503 138.335C194.503 136.223 195.703 133.799 197.959 133.799ZM201.559 131.663L201.247 133.055C200.863 132.311 199.831 131.351 197.743 131.351C194.263 131.351 191.719 134.519 191.719 138.407C191.719 141.335 193.399 143.567 196.375 143.567C197.839 143.567 198.919 142.775 199.591 141.911C199.543 142.439 199.543 142.583 199.543 142.871C199.543 143.015 199.543 143.135 199.567 143.351H202.159C202.135 143.087 202.135 142.895 202.135 142.775C202.135 142.007 202.231 141.287 202.375 140.567L204.271 131.663H201.559ZM214.213 136.391C214.213 138.887 212.821 140.423 210.925 140.423C209.221 140.423 208.333 139.247 208.333 137.663C208.333 135.311 209.773 133.847 211.669 133.847C213.373 133.847 214.213 135.095 214.213 136.391ZM204.133 143.903C204.133 146.039 205.789 148.271 209.269 148.271C213.373 148.271 215.197 145.367 215.845 142.295L218.053 131.663H215.293L215.005 133.103C214.453 132.143 213.229 131.423 211.477 131.423C208.021 131.423 205.549 134.255 205.549 137.855C205.549 140.615 207.325 142.727 210.301 142.727C211.693 142.727 212.725 142.127 213.205 141.455L213.013 142.319C212.509 144.551 211.333 145.871 209.269 145.871C207.901 145.871 206.653 145.079 206.653 143.351L204.133 143.903ZM222.258 136.223C222.666 134.855 223.77 133.631 225.522 133.631C227.298 133.631 227.898 134.855 227.898 135.863C227.898 135.983 227.874 136.175 227.874 136.223H222.258ZM230.274 138.263C230.442 137.735 230.61 136.919 230.61 136.127C230.61 133.319 228.81 131.303 225.594 131.303C222.402 131.303 219.258 133.967 219.258 138.359C219.258 141.743 221.706 143.711 224.61 143.711C227.202 143.711 229.002 142.343 229.794 140.807L227.658 139.631C227.202 140.519 226.218 141.335 224.682 141.335C223.074 141.335 221.922 140.183 221.922 138.527C221.922 138.431 221.922 138.383 221.946 138.263H230.274ZM242.111 143.351L243.647 136.247C243.743 135.839 243.791 135.335 243.791 134.951C243.791 132.815 242.447 131.327 240.263 131.327C238.967 131.327 237.647 131.759 236.807 132.887C236.903 132.431 236.927 131.807 236.927 131.663H234.239C234.239 131.759 234.215 132.575 233.975 133.679L231.935 143.351H234.695L236.159 136.559C236.471 135.143 237.383 133.799 238.967 133.799C240.239 133.799 240.935 134.519 240.935 135.695C240.935 135.911 240.887 136.175 240.839 136.439L239.351 143.351H242.111ZM257.096 135.119C256.712 133.343 255.32 131.303 252.128 131.303C248.624 131.303 245.624 134.087 245.624 138.263C245.624 141.383 247.76 143.711 251.096 143.711C253.856 143.711 255.608 142.007 256.472 140.207L254.168 139.271C253.664 140.231 252.8 141.215 251.24 141.215C249.536 141.215 248.384 140.063 248.384 138.215C248.384 135.287 250.184 133.823 251.936 133.823C253.52 133.823 254.336 134.831 254.576 135.911L257.096 135.119ZM260.83 127.679C260.83 128.567 261.502 129.287 262.462 129.287C263.47 129.287 264.454 128.447 264.454 127.295C264.454 126.407 263.782 125.711 262.822 125.711C261.79 125.711 260.83 126.575 260.83 127.679ZM260.686 143.351L263.182 131.663H260.422L257.926 143.351H260.686ZM267.54 136.223C267.948 134.855 269.052 133.631 270.804 133.631C272.58 133.631 273.18 134.855 273.18 135.863C273.18 135.983 273.156 136.175 273.156 136.223H267.54ZM275.556 138.263C275.724 137.735 275.892 136.919 275.892 136.127C275.892 133.319 274.092 131.303 270.876 131.303C267.684 131.303 264.54 133.967 264.54 138.359C264.54 141.743 266.988 143.711 269.892 143.711C272.484 143.711 274.284 142.343 275.076 140.807L272.94 139.631C272.484 140.519 271.5 141.335 269.964 141.335C268.356 141.335 267.204 140.183 267.204 138.527C267.204 138.431 267.204 138.383 267.228 138.263H275.556ZM276.856 139.727C276.856 141.119 277.72 143.711 281.368 143.711C284.44 143.711 285.784 141.623 285.784 139.943C285.784 138.551 284.968 137.351 283.264 136.607L281.728 135.935C281.224 135.719 280.912 135.359 280.912 134.783C280.912 134.063 281.512 133.463 282.496 133.463C284.032 133.463 284.44 134.567 284.488 135.287L286.912 134.783C286.84 133.511 285.952 131.303 282.64 131.303C279.976 131.303 278.272 133.127 278.272 135.143C278.272 136.511 278.992 137.591 280.576 138.287L282.064 138.935C282.76 139.247 283.048 139.703 283.048 140.183C283.048 140.855 282.52 141.527 281.392 141.527C279.976 141.527 279.256 140.495 279.256 139.271L276.856 139.727ZM296.562 143.351L296.946 141.599C297.426 142.727 298.77 143.663 300.546 143.663C304.146 143.663 306.714 140.519 306.714 136.367C306.714 133.607 305.202 131.375 302.178 131.375C300.81 131.375 299.586 131.831 298.866 132.623L300.258 125.975H297.522L293.874 143.351H296.562ZM301.194 133.799C302.874 133.799 303.906 134.831 303.906 136.727C303.906 139.607 302.034 141.191 300.33 141.191C298.746 141.191 297.714 139.991 297.714 138.239C297.714 135.599 299.298 133.799 301.194 133.799ZM311.204 136.223C311.612 134.855 312.716 133.631 314.468 133.631C316.244 133.631 316.844 134.855 316.844 135.863C316.844 135.983 316.82 136.175 316.82 136.223H311.204ZM319.22 138.263C319.388 137.735 319.556 136.919 319.556 136.127C319.556 133.319 317.756 131.303 314.54 131.303C311.348 131.303 308.204 133.967 308.204 138.359C308.204 141.743 310.652 143.711 313.556 143.711C316.148 143.711 317.948 142.343 318.74 140.807L316.604 139.631C316.148 140.519 315.164 141.335 313.628 141.335C312.02 141.335 310.868 140.183 310.868 138.527C310.868 138.431 310.868 138.383 310.892 138.263H319.22ZM328.472 134.063L328.976 131.663H326.408L326.768 130.031C327.032 128.783 327.752 128.303 328.712 128.303C329.288 128.303 329.672 128.519 329.696 128.519C329.696 128.519 329.72 128.519 329.72 128.495L330.224 126.191C330.056 126.095 329.384 125.831 328.472 125.831C326.696 125.831 324.704 126.527 324.08 129.527L323.624 131.663H321.632L321.128 134.063H323.096L321.128 143.351H323.936L325.904 134.063H328.472ZM335.281 133.799C336.937 133.823 337.945 134.951 337.945 136.799C337.945 139.703 336.169 141.215 334.441 141.215C332.857 141.215 331.777 140.039 331.777 138.191C331.777 135.527 333.409 133.799 335.281 133.799ZM340.753 136.703C340.753 133.703 338.833 131.303 335.473 131.303C331.873 131.303 328.993 134.207 328.993 138.287C328.993 141.287 331.009 143.711 334.297 143.711C338.041 143.711 340.753 140.567 340.753 136.703ZM350.613 134.495L351.213 131.615C350.973 131.567 350.685 131.543 350.373 131.543C349.245 131.543 347.733 131.927 346.845 133.271C346.965 132.815 347.013 131.999 347.013 131.663H344.325C344.325 131.759 344.301 132.575 344.061 133.679L342.021 143.351H344.757L345.933 137.879C346.509 135.239 347.997 134.375 349.629 134.375C349.941 134.375 350.277 134.423 350.613 134.495ZM354.352 136.223C354.76 134.855 355.864 133.631 357.616 133.631C359.392 133.631 359.992 134.855 359.992 135.863C359.992 135.983 359.968 136.175 359.968 136.223H354.352ZM362.368 138.263C362.536 137.735 362.704 136.919 362.704 136.127C362.704 133.319 360.904 131.303 357.688 131.303C354.496 131.303 351.352 133.967 351.352 138.359C351.352 141.743 353.8 143.711 356.704 143.711C359.296 143.711 361.096 142.343 361.888 140.807L359.752 139.631C359.296 140.519 358.312 141.335 356.776 141.335C355.168 141.335 354.016 140.183 354.016 138.527C354.016 138.431 354.016 138.383 354.04 138.263H362.368ZM378.662 131.663L374.486 139.679L373.814 131.663H371.15L372.302 143.351H375.182L379.526 134.999L380.582 143.351H383.366L389.462 131.663H386.534L382.574 139.703L381.59 131.663H378.662ZM392.18 136.223C392.588 134.855 393.692 133.631 395.444 133.631C397.22 133.631 397.82 134.855 397.82 135.863C397.82 135.983 397.796 136.175 397.796 136.223H392.18ZM400.196 138.263C400.364 137.735 400.532 136.919 400.532 136.127C400.532 133.319 398.732 131.303 395.516 131.303C392.324 131.303 389.18 133.967 389.18 138.359C389.18 141.743 391.628 143.711 394.532 143.711C397.124 143.711 398.924 142.343 399.716 140.807L397.58 139.631C397.124 140.519 396.14 141.335 394.604 141.335C392.996 141.335 391.844 140.183 391.844 138.527C391.844 138.431 391.844 138.383 391.868 138.263H400.196ZM416.058 134.063L416.562 131.663H413.994L414.354 130.031C414.618 128.783 415.338 128.303 416.298 128.303C416.874 128.303 417.258 128.519 417.282 128.519C417.282 128.519 417.306 128.519 417.306 128.495L417.81 126.191C417.642 126.095 416.97 125.831 416.058 125.831C414.282 125.831 412.29 126.527 411.666 129.527L411.21 131.663H409.218L408.714 134.063H410.682L408.714 143.351H411.522L413.49 134.063H416.058ZM422.867 133.799C424.523 133.823 425.531 134.951 425.531 136.799C425.531 139.703 423.755 141.215 422.027 141.215C420.443 141.215 419.363 140.039 419.363 138.191C419.363 135.527 420.995 133.799 422.867 133.799ZM428.339 136.703C428.339 133.703 426.419 131.303 423.059 131.303C419.459 131.303 416.579 134.207 416.579 138.287C416.579 141.287 418.595 143.711 421.883 143.711C425.627 143.711 428.339 140.567 428.339 136.703ZM431.837 131.663L430.373 138.503C430.277 138.959 430.229 139.391 430.229 139.799C430.229 142.031 431.597 143.615 434.045 143.615C435.125 143.615 436.373 143.111 437.045 142.079C437.021 142.295 437.021 142.487 437.021 142.655C437.021 142.967 437.045 143.207 437.069 143.351H439.757C439.733 143.087 439.733 142.967 439.733 142.823C439.733 142.079 439.853 141.407 439.997 140.687L441.869 131.663H439.133L437.693 138.479C437.381 139.943 436.469 141.215 434.981 141.215C433.613 141.215 433.061 140.423 433.061 139.319C433.061 139.031 433.109 138.719 433.181 138.383L434.621 131.663H431.837ZM453.189 143.351L454.725 136.247C454.821 135.839 454.869 135.335 454.869 134.951C454.869 132.815 453.525 131.327 451.341 131.327C450.045 131.327 448.725 131.759 447.885 132.887C447.981 132.431 448.005 131.807 448.005 131.663H445.317C445.317 131.759 445.293 132.575 445.053 133.679L443.013 143.351H445.773L447.237 136.559C447.549 135.143 448.461 133.799 450.045 133.799C451.317 133.799 452.013 134.519 452.013 135.695C452.013 135.911 451.965 136.175 451.917 136.439L450.429 143.351H453.189ZM470.526 125.975H467.766L466.278 133.007C465.846 132.239 464.79 131.351 462.798 131.351C459.318 131.351 456.774 134.519 456.774 138.407C456.774 141.335 458.454 143.567 461.43 143.567C462.894 143.567 463.974 142.775 464.646 141.911C464.622 142.127 464.598 142.415 464.598 142.751C464.598 142.895 464.598 143.135 464.622 143.351H467.19C467.166 143.183 467.166 142.847 467.166 142.775C467.166 142.247 467.238 141.527 467.43 140.567L470.526 125.975ZM463.014 133.799C464.622 133.799 465.462 134.927 465.462 136.511C465.462 139.295 463.926 141.191 462.054 141.191C460.446 141.191 459.558 140.039 459.558 138.335C459.558 136.223 460.758 133.799 463.014 133.799ZM490.612 125.975H487.852L486.364 133.007C485.932 132.239 484.876 131.351 482.884 131.351C479.404 131.351 476.86 134.519 476.86 138.407C476.86 141.335 478.54 143.567 481.516 143.567C482.98 143.567 484.06 142.775 484.732 141.911C484.708 142.127 484.684 142.415 484.684 142.751C484.684 142.895 484.684 143.135 484.708 143.351H487.276C487.252 143.183 487.252 142.847 487.252 142.775C487.252 142.247 487.324 141.527 487.516 140.567L490.612 125.975ZM483.1 133.799C484.708 133.799 485.548 134.927 485.548 136.511C485.548 139.295 484.012 141.191 482.14 141.191C480.532 141.191 479.644 140.039 479.644 138.335C479.644 136.223 480.844 133.799 483.1 133.799ZM496.928 133.799C498.536 133.799 499.376 134.927 499.376 136.511C499.376 139.295 497.84 141.191 495.968 141.191C494.36 141.191 493.472 140.039 493.472 138.335C493.472 136.223 494.672 133.799 496.928 133.799ZM500.528 131.663L500.216 133.055C499.832 132.311 498.8 131.351 496.712 131.351C493.232 131.351 490.688 134.519 490.688 138.407C490.688 141.335 492.368 143.567 495.344 143.567C496.808 143.567 497.888 142.775 498.56 141.911C498.512 142.439 498.512 142.583 498.512 142.871C498.512 143.015 498.512 143.135 498.536 143.351H501.128C501.104 143.087 501.104 142.895 501.104 142.775C501.104 142.007 501.2 141.287 501.344 140.567L503.24 131.663H500.528ZM514.261 125.975C509.701 125.975 505.069 129.551 505.069 136.055C505.069 140.519 508.093 143.711 512.437 143.711C516.469 143.711 519.013 141.359 520.189 138.551L517.645 137.519C516.733 139.559 515.125 140.999 512.701 140.999C509.797 140.999 508.021 138.983 508.021 135.887C508.021 131.855 510.493 128.687 514.045 128.687C516.781 128.687 518.173 130.415 518.557 132.263L521.317 131.423C520.789 128.663 518.677 125.975 514.261 125.975ZM527.89 133.799C529.546 133.823 530.554 134.951 530.554 136.799C530.554 139.703 528.778 141.215 527.05 141.215C525.466 141.215 524.386 140.039 524.386 138.191C524.386 135.527 526.018 133.799 527.89 133.799ZM533.362 136.703C533.362 133.703 531.442 131.303 528.082 131.303C524.482 131.303 521.602 134.207 521.602 138.287C521.602 141.287 523.618 143.711 526.906 143.711C530.65 143.711 533.362 140.567 533.362 136.703ZM548.573 125.975H545.813L544.325 133.007C543.893 132.239 542.837 131.351 540.845 131.351C537.365 131.351 534.821 134.519 534.821 138.407C534.821 141.335 536.501 143.567 539.477 143.567C540.941 143.567 542.021 142.775 542.693 141.911C542.669 142.127 542.645 142.415 542.645 142.751C542.645 142.895 542.645 143.135 542.669 143.351H545.237C545.213 143.183 545.213 142.847 545.213 142.775C545.213 142.247 545.285 141.527 545.477 140.567L548.573 125.975ZM541.061 133.799C542.669 133.799 543.509 134.927 543.509 136.511C543.509 139.295 541.973 141.191 540.101 141.191C538.493 141.191 537.605 140.039 537.605 138.335C537.605 136.223 538.805 133.799 541.061 133.799ZM551.579 136.223C551.987 134.855 553.091 133.631 554.843 133.631C556.619 133.631 557.219 134.855 557.219 135.863C557.219 135.983 557.195 136.175 557.195 136.223H551.579ZM559.595 138.263C559.763 137.735 559.931 136.919 559.931 136.127C559.931 133.319 558.131 131.303 554.915 131.303C551.723 131.303 548.579 133.967 548.579 138.359C548.579 141.743 551.027 143.711 553.931 143.711C556.523 143.711 558.323 142.343 559.115 140.807L556.979 139.631C556.523 140.519 555.539 141.335 554.003 141.335C552.395 141.335 551.243 140.183 551.243 138.527C551.243 138.431 551.243 138.383 551.267 138.263H559.595ZM563.007 143.495C564.183 143.495 565.167 142.535 565.167 141.335C565.167 140.399 564.495 139.607 563.391 139.607C562.191 139.607 561.207 140.591 561.207 141.743C561.207 142.679 561.927 143.495 563.007 143.495ZM587.372 143.351L590.972 126.335H588.068L586.58 133.367H579.236L580.724 126.335H577.844L574.244 143.351H577.124L578.66 136.079H586.004L584.468 143.351H587.372ZM597.592 133.799C599.2 133.799 600.04 134.927 600.04 136.511C600.04 139.295 598.504 141.191 596.632 141.191C595.024 141.191 594.136 140.039 594.136 138.335C594.136 136.223 595.336 133.799 597.592 133.799ZM601.192 131.663L600.88 133.055C600.496 132.311 599.464 131.351 597.376 131.351C593.896 131.351 591.352 134.519 591.352 138.407C591.352 141.335 593.032 143.567 596.008 143.567C597.472 143.567 598.552 142.775 599.224 141.911C599.176 142.439 599.176 142.583 599.176 142.871C599.176 143.015 599.176 143.135 599.2 143.351H601.792C601.768 143.087 601.768 142.895 601.768 142.775C601.768 142.007 601.864 141.287 602.008 140.567L603.904 131.663H601.192ZM604.629 139.727C604.629 141.119 605.493 143.711 609.141 143.711C612.213 143.711 613.557 141.623 613.557 139.943C613.557 138.551 612.741 137.351 611.037 136.607L609.501 135.935C608.997 135.719 608.685 135.359 608.685 134.783C608.685 134.063 609.285 133.463 610.269 133.463C611.805 133.463 612.213 134.567 612.261 135.287L614.685 134.783C614.613 133.511 613.725 131.303 610.413 131.303C607.749 131.303 606.045 133.127 606.045 135.143C606.045 136.511 606.765 137.591 608.349 138.287L609.837 138.935C610.533 139.247 610.821 139.703 610.821 140.183C610.821 140.855 610.293 141.527 609.165 141.527C607.749 141.527 607.029 140.495 607.029 139.271L604.629 139.727ZM624.336 143.351L624.72 141.599C625.2 142.727 626.544 143.663 628.32 143.663C631.92 143.663 634.488 140.519 634.488 136.367C634.488 133.607 632.976 131.375 629.952 131.375C628.584 131.375 627.36 131.831 626.64 132.623L628.032 125.975H625.296L621.648 143.351H624.336ZM628.968 133.799C630.648 133.799 631.68 134.831 631.68 136.727C631.68 139.607 629.808 141.191 628.104 141.191C626.52 141.191 625.488 139.991 625.488 138.239C625.488 135.599 627.072 133.799 628.968 133.799ZM638.977 136.223C639.385 134.855 640.489 133.631 642.241 133.631C644.017 133.631 644.617 134.855 644.617 135.863C644.617 135.983 644.593 136.175 644.593 136.223H638.977ZM646.993 138.263C647.161 137.735 647.329 136.919 647.329 136.127C647.329 133.319 645.529 131.303 642.313 131.303C639.121 131.303 635.977 133.967 635.977 138.359C635.977 141.743 638.425 143.711 641.329 143.711C643.921 143.711 645.721 142.343 646.513 140.807L644.377 139.631C643.921 140.519 642.937 141.335 641.401 141.335C639.793 141.335 638.641 140.183 638.641 138.527C638.641 138.431 638.641 138.383 638.665 138.263H646.993ZM651.797 136.223C652.205 134.855 653.309 133.631 655.061 133.631C656.837 133.631 657.437 134.855 657.437 135.863C657.437 135.983 657.413 136.175 657.413 136.223H651.797ZM659.813 138.263C659.981 137.735 660.149 136.919 660.149 136.127C660.149 133.319 658.349 131.303 655.133 131.303C651.941 131.303 648.797 133.967 648.797 138.359C648.797 141.743 651.245 143.711 654.149 143.711C656.741 143.711 658.541 142.343 659.333 140.807L657.197 139.631C656.741 140.519 655.757 141.335 654.221 141.335C652.613 141.335 651.461 140.183 651.461 138.527C651.461 138.431 651.461 138.383 651.485 138.263H659.813ZM671.65 143.351L673.186 136.247C673.282 135.839 673.33 135.335 673.33 134.951C673.33 132.815 671.986 131.327 669.802 131.327C668.506 131.327 667.186 131.759 666.346 132.887C666.442 132.431 666.466 131.807 666.466 131.663H663.778C663.778 131.759 663.754 132.575 663.514 133.679L661.474 143.351H664.234L665.698 136.559C666.01 135.143 666.922 133.799 668.506 133.799C669.778 133.799 670.474 134.519 670.474 135.695C670.474 135.911 670.426 136.175 670.378 136.439L668.89 143.351H671.65ZM687.78 133.799C689.388 133.799 690.228 134.927 690.228 136.511C690.228 139.295 688.692 141.191 686.82 141.191C685.212 141.191 684.324 140.039 684.324 138.335C684.324 136.223 685.524 133.799 687.78 133.799ZM691.38 131.663L691.068 133.055C690.684 132.311 689.652 131.351 687.564 131.351C684.084 131.351 681.54 134.519 681.54 138.407C681.54 141.335 683.22 143.567 686.196 143.567C687.66 143.567 688.74 142.775 689.412 141.911C689.364 142.439 689.364 142.583 689.364 142.871C689.364 143.015 689.364 143.135 689.388 143.351H691.98C691.956 143.087 691.956 142.895 691.956 142.775C691.956 142.007 692.052 141.287 692.196 140.567L694.092 131.663H691.38ZM708.563 133.847C710.171 133.847 711.227 134.855 711.227 136.727C711.227 139.607 709.379 141.191 707.699 141.191C706.115 141.191 705.059 140.135 705.059 138.239C705.059 135.599 706.667 133.847 708.563 133.847ZM706.067 132.935C706.139 132.479 706.163 131.807 706.163 131.663H703.475C703.475 131.759 703.451 132.575 703.211 133.679L700.187 147.911H702.923L704.219 141.767C704.843 142.871 706.235 143.663 707.915 143.663C711.491 143.663 714.035 140.519 714.035 136.367C714.035 133.583 712.571 131.375 709.547 131.375C708.155 131.375 706.811 131.975 706.067 132.935ZM718.092 143.351L721.788 125.975H719.028L715.332 143.351H718.092ZM724.829 136.223C725.237 134.855 726.341 133.631 728.093 133.631C729.869 133.631 730.469 134.855 730.469 135.863C730.469 135.983 730.445 136.175 730.445 136.223H724.829ZM732.845 138.263C733.013 137.735 733.181 136.919 733.181 136.127C733.181 133.319 731.381 131.303 728.165 131.303C724.973 131.303 721.829 133.967 721.829 138.359C721.829 141.743 724.277 143.711 727.181 143.711C729.773 143.711 731.573 142.343 732.365 140.807L730.229 139.631C729.773 140.519 728.789 141.335 727.253 141.335C725.645 141.335 724.493 140.183 724.493 138.527C724.493 138.431 724.493 138.383 724.517 138.263H732.845ZM740.889 133.799C742.497 133.799 743.337 134.927 743.337 136.511C743.337 139.295 741.801 141.191 739.929 141.191C738.321 141.191 737.433 140.039 737.433 138.335C737.433 136.223 738.633 133.799 740.889 133.799ZM744.489 131.663L744.177 133.055C743.793 132.311 742.761 131.351 740.673 131.351C737.193 131.351 734.649 134.519 734.649 138.407C734.649 141.335 736.329 143.567 739.305 143.567C740.769 143.567 741.849 142.775 742.521 141.911C742.473 142.439 742.473 142.583 742.473 142.871C742.473 143.015 742.473 143.135 742.497 143.351H745.089C745.065 143.087 745.065 142.895 745.065 142.775C745.065 142.007 745.161 141.287 745.305 140.567L747.201 131.663H744.489ZM747.926 139.727C747.926 141.119 748.79 143.711 752.438 143.711C755.51 143.711 756.854 141.623 756.854 139.943C756.854 138.551 756.038 137.351 754.334 136.607L752.798 135.935C752.294 135.719 751.982 135.359 751.982 134.783C751.982 134.063 752.582 133.463 753.566 133.463C755.102 133.463 755.51 134.567 755.558 135.287L757.982 134.783C757.91 133.511 757.022 131.303 753.71 131.303C751.046 131.303 749.342 133.127 749.342 135.143C749.342 136.511 750.062 137.591 751.646 138.287L753.134 138.935C753.83 139.247 754.118 139.703 754.118 140.183C754.118 140.855 753.59 141.527 752.462 141.527C751.046 141.527 750.326 140.495 750.326 139.271L747.926 139.727ZM761.111 131.663L759.647 138.503C759.551 138.959 759.503 139.391 759.503 139.799C759.503 142.031 760.871 143.615 763.319 143.615C764.399 143.615 765.647 143.111 766.319 142.079C766.295 142.295 766.295 142.487 766.295 142.655C766.295 142.967 766.319 143.207 766.343 143.351H769.031C769.007 143.087 769.007 142.967 769.007 142.823C769.007 142.079 769.127 141.407 769.271 140.687L771.143 131.663H768.407L766.967 138.479C766.655 139.943 765.743 141.215 764.255 141.215C762.887 141.215 762.335 140.423 762.335 139.319C762.335 139.031 762.383 138.719 762.455 138.383L763.895 131.663H761.111ZM780.878 134.495L781.478 131.615C781.238 131.567 780.95 131.543 780.638 131.543C779.51 131.543 777.998 131.927 777.11 133.271C777.23 132.815 777.278 131.999 777.278 131.663H774.59C774.59 131.759 774.566 132.575 774.326 133.679L772.286 143.351H775.022L776.198 137.879C776.774 135.239 778.262 134.375 779.894 134.375C780.206 134.375 780.542 134.423 780.878 134.495ZM784.618 136.223C785.026 134.855 786.13 133.631 787.882 133.631C789.658 133.631 790.258 134.855 790.258 135.863C790.258 135.983 790.234 136.175 790.234 136.223H784.618ZM792.634 138.263C792.802 137.735 792.97 136.919 792.97 136.127C792.97 133.319 791.17 131.303 787.954 131.303C784.762 131.303 781.618 133.967 781.618 138.359C781.618 141.743 784.066 143.711 786.97 143.711C789.562 143.711 791.362 142.343 792.154 140.807L790.018 139.631C789.562 140.519 788.578 141.335 787.042 141.335C785.434 141.335 784.282 140.183 784.282 138.527C784.282 138.431 784.282 138.383 784.306 138.263H792.634ZM801.872 140.711C801.872 142.439 803.048 143.495 804.944 143.495C805.64 143.495 806.12 143.351 806.336 143.255L806.792 141.023C806.504 141.071 806.264 141.095 805.976 141.095C805.016 141.095 804.704 140.663 804.704 140.111C804.704 139.967 804.728 139.775 804.776 139.583L805.928 134.135H808.232L808.76 131.663H806.432L807.224 128.087H804.704L804.344 129.767C804.08 130.943 803.36 131.663 802.016 131.663H801.584L801.056 134.135H803.168L802.064 139.295C801.92 139.919 801.872 140.423 801.872 140.711ZM815.445 133.799C817.101 133.823 818.109 134.951 818.109 136.799C818.109 139.703 816.333 141.215 814.605 141.215C813.021 141.215 811.941 140.039 811.941 138.191C811.941 135.527 813.573 133.799 815.445 133.799ZM820.917 136.703C820.917 133.703 818.997 131.303 815.637 131.303C812.037 131.303 809.157 134.207 809.157 138.287C809.157 141.287 811.173 143.711 814.461 143.711C818.205 143.711 820.917 140.567 820.917 136.703ZM836.865 131.663L832.689 139.679L832.017 131.663H829.353L830.505 143.351H833.385L837.729 134.999L838.785 143.351H841.569L847.665 131.663H844.737L840.777 139.703L839.793 131.663H836.865ZM853.671 133.799C855.327 133.823 856.335 134.951 856.335 136.799C856.335 139.703 854.559 141.215 852.831 141.215C851.247 141.215 850.167 140.039 850.167 138.191C850.167 135.527 851.799 133.799 853.671 133.799ZM859.143 136.703C859.143 133.703 857.223 131.303 853.863 131.303C850.263 131.303 847.383 134.207 847.383 138.287C847.383 141.287 849.399 143.711 852.687 143.711C856.431 143.711 859.143 140.567 859.143 136.703ZM869.003 134.495L869.603 131.615C869.363 131.567 869.075 131.543 868.763 131.543C867.635 131.543 866.123 131.927 865.235 133.271C865.355 132.815 865.403 131.999 865.403 131.663H862.715C862.715 131.759 862.691 132.575 862.451 133.679L860.411 143.351H863.147L864.323 137.879C864.899 135.239 866.387 134.375 868.019 134.375C868.331 134.375 868.667 134.423 869.003 134.495ZM877.729 143.351H880.801L877.441 136.511L883.225 131.663H879.289L874.105 136.079L876.265 125.975H873.505L869.833 143.351H872.569L873.265 140.015L875.329 138.287L877.729 143.351ZM111.24 174.663L107.064 182.679L106.392 174.663H103.728L104.88 186.351H107.76L112.104 177.999L113.16 186.351H115.944L122.04 174.663H119.112L115.152 182.703L114.168 174.663H111.24ZM124.634 170.679C124.634 171.567 125.306 172.287 126.266 172.287C127.274 172.287 128.258 171.447 128.258 170.295C128.258 169.407 127.586 168.711 126.626 168.711C125.594 168.711 124.634 169.575 124.634 170.679ZM124.49 186.351L126.986 174.663H124.226L121.73 186.351H124.49ZM129.286 183.711C129.286 185.439 130.462 186.495 132.358 186.495C133.054 186.495 133.534 186.351 133.75 186.255L134.206 184.023C133.918 184.071 133.678 184.095 133.39 184.095C132.43 184.095 132.118 183.663 132.118 183.111C132.118 182.967 132.142 182.775 132.19 182.583L133.342 177.135H135.646L136.174 174.663H133.846L134.638 171.087H132.118L131.758 172.767C131.494 173.943 130.774 174.663 129.43 174.663H128.998L128.47 177.135H130.582L129.478 182.295C129.334 182.919 129.286 183.423 129.286 183.711ZM146.72 186.351L148.28 179.127C148.352 178.839 148.4 178.335 148.4 177.903C148.4 175.767 147.056 174.327 144.776 174.327C143.528 174.327 142.376 174.711 141.584 175.623L143 168.975H140.216L136.544 186.351H139.304L140.768 179.559C141.08 178.143 141.992 176.799 143.576 176.799C144.848 176.799 145.544 177.519 145.544 178.695C145.544 178.911 145.496 179.175 145.448 179.439L143.96 186.351H146.72ZM162.85 176.799C164.458 176.799 165.298 177.927 165.298 179.511C165.298 182.295 163.762 184.191 161.89 184.191C160.282 184.191 159.394 183.039 159.394 181.335C159.394 179.223 160.594 176.799 162.85 176.799ZM166.45 174.663L166.138 176.055C165.754 175.311 164.722 174.351 162.634 174.351C159.154 174.351 156.61 177.519 156.61 181.407C156.61 184.335 158.29 186.567 161.266 186.567C162.73 186.567 163.81 185.775 164.482 184.911C164.434 185.439 164.434 185.583 164.434 185.871C164.434 186.015 164.434 186.135 164.458 186.351H167.05C167.026 186.087 167.026 185.895 167.026 185.775C167.026 185.007 167.122 184.287 167.266 183.567L169.162 174.663H166.45ZM180.423 186.351L181.959 179.247C182.055 178.839 182.103 178.335 182.103 177.951C182.103 175.815 180.759 174.327 178.575 174.327C177.279 174.327 175.959 174.759 175.119 175.887C175.215 175.431 175.239 174.807 175.239 174.663H172.551C172.551 174.759 172.527 175.575 172.287 176.679L170.247 186.351H173.007L174.471 179.559C174.783 178.143 175.695 176.799 177.279 176.799C178.551 176.799 179.247 177.519 179.247 178.695C179.247 178.911 179.199 179.175 179.151 179.439L177.663 186.351H180.423ZM197.76 168.975H195L193.512 176.007C193.08 175.239 192.024 174.351 190.032 174.351C186.552 174.351 184.008 177.519 184.008 181.407C184.008 184.335 185.688 186.567 188.664 186.567C190.128 186.567 191.208 185.775 191.88 184.911C191.856 185.127 191.832 185.415 191.832 185.751C191.832 185.895 191.832 186.135 191.856 186.351H194.424C194.4 186.183 194.4 185.847 194.4 185.775C194.4 185.247 194.472 184.527 194.664 183.567L197.76 168.975ZM190.248 176.799C191.856 176.799 192.696 177.927 192.696 179.511C192.696 182.295 191.16 184.191 189.288 184.191C187.68 184.191 186.792 183.039 186.792 181.335C186.792 179.223 187.992 176.799 190.248 176.799ZM212.326 174.663L208.15 182.679L207.478 174.663H204.814L205.966 186.351H208.846L213.19 177.999L214.246 186.351H217.03L223.126 174.663H220.198L216.238 182.703L215.254 174.663H212.326ZM225.72 170.679C225.72 171.567 226.392 172.287 227.352 172.287C228.36 172.287 229.344 171.447 229.344 170.295C229.344 169.407 228.672 168.711 227.712 168.711C226.68 168.711 225.72 169.575 225.72 170.679ZM225.576 186.351L228.072 174.663H225.312L222.816 186.351H225.576ZM231.998 186.351L235.694 168.975H232.934L229.238 186.351H231.998ZM238.373 186.351L242.069 168.975H239.309L235.613 186.351H238.373ZM247.934 182.727C247.934 184.119 248.798 186.711 252.446 186.711C255.518 186.711 256.862 184.623 256.862 182.943C256.862 181.551 256.046 180.351 254.342 179.607L252.806 178.935C252.302 178.719 251.99 178.359 251.99 177.783C251.99 177.063 252.59 176.463 253.574 176.463C255.11 176.463 255.518 177.567 255.566 178.287L257.99 177.783C257.918 176.511 257.03 174.303 253.718 174.303C251.054 174.303 249.35 176.127 249.35 178.143C249.35 179.511 250.07 180.591 251.654 181.287L253.142 181.935C253.838 182.247 254.126 182.703 254.126 183.183C254.126 183.855 253.598 184.527 252.47 184.527C251.054 184.527 250.334 183.495 250.334 182.271L247.934 182.727ZM265.367 176.799C267.023 176.823 268.031 177.951 268.031 179.799C268.031 182.703 266.255 184.215 264.527 184.215C262.943 184.215 261.863 183.039 261.863 181.191C261.863 178.527 263.495 176.799 265.367 176.799ZM270.839 179.703C270.839 176.703 268.919 174.303 265.559 174.303C261.959 174.303 259.079 177.207 259.079 181.287C259.079 184.287 261.095 186.711 264.383 186.711C268.127 186.711 270.839 183.567 270.839 179.703ZM278.585 176.799C280.241 176.823 281.249 177.951 281.249 179.799C281.249 182.703 279.473 184.215 277.745 184.215C276.161 184.215 275.081 183.039 275.081 181.191C275.081 178.527 276.713 176.799 278.585 176.799ZM284.057 179.703C284.057 176.703 282.137 174.303 278.777 174.303C275.177 174.303 272.297 177.207 272.297 181.287C272.297 184.287 274.313 186.711 277.601 186.711C281.345 186.711 284.057 183.567 284.057 179.703ZM295.501 186.351L297.037 179.247C297.133 178.839 297.181 178.335 297.181 177.951C297.181 175.815 295.837 174.327 293.653 174.327C292.357 174.327 291.037 174.759 290.197 175.887C290.293 175.431 290.317 174.807 290.317 174.663H287.629C287.629 174.759 287.605 175.575 287.365 176.679L285.325 186.351H288.085L289.549 179.559C289.861 178.143 290.773 176.799 292.357 176.799C293.629 176.799 294.325 177.519 294.325 178.695C294.325 178.911 294.277 179.175 294.229 179.439L292.741 186.351H295.501ZM304.887 182.727C304.887 184.119 305.751 186.711 309.399 186.711C312.471 186.711 313.815 184.623 313.815 182.943C313.815 181.551 312.999 180.351 311.295 179.607L309.759 178.935C309.255 178.719 308.943 178.359 308.943 177.783C308.943 177.063 309.543 176.463 310.527 176.463C312.063 176.463 312.471 177.567 312.519 178.287L314.943 177.783C314.871 176.511 313.983 174.303 310.671 174.303C308.007 174.303 306.303 176.127 306.303 178.143C306.303 179.511 307.023 180.591 308.607 181.287L310.095 181.935C310.791 182.247 311.079 182.703 311.079 183.183C311.079 183.855 310.551 184.527 309.423 184.527C308.007 184.527 307.287 183.495 307.287 182.271L304.887 182.727ZM317.208 183.711C317.208 185.439 318.384 186.495 320.28 186.495C320.976 186.495 321.456 186.351 321.672 186.255L322.128 184.023C321.84 184.071 321.6 184.095 321.312 184.095C320.352 184.095 320.04 183.663 320.04 183.111C320.04 182.967 320.064 182.775 320.112 182.583L321.264 177.135H323.568L324.096 174.663H321.768L322.56 171.087H320.04L319.68 172.767C319.416 173.943 318.696 174.663 317.352 174.663H316.92L316.392 177.135H318.504L317.4 182.295C317.256 182.919 317.208 183.423 317.208 183.711ZM330.78 176.799C332.388 176.799 333.228 177.927 333.228 179.511C333.228 182.295 331.692 184.191 329.82 184.191C328.212 184.191 327.324 183.039 327.324 181.335C327.324 179.223 328.524 176.799 330.78 176.799ZM334.38 174.663L334.068 176.055C333.684 175.311 332.652 174.351 330.564 174.351C327.084 174.351 324.54 177.519 324.54 181.407C324.54 184.335 326.22 186.567 329.196 186.567C330.66 186.567 331.74 185.775 332.412 184.911C332.364 185.439 332.364 185.583 332.364 185.871C332.364 186.015 332.364 186.135 332.388 186.351H334.98C334.956 186.087 334.956 185.895 334.956 185.775C334.956 185.007 335.052 184.287 335.196 183.567L337.092 174.663H334.38ZM346.769 177.495L347.369 174.615C347.129 174.567 346.841 174.543 346.529 174.543C345.401 174.543 343.889 174.927 343.001 176.271C343.121 175.815 343.169 174.999 343.169 174.663H340.481C340.481 174.759 340.457 175.575 340.217 176.679L338.177 186.351H340.913L342.089 180.879C342.665 178.239 344.153 177.375 345.785 177.375C346.097 177.375 346.433 177.423 346.769 177.495ZM349.294 183.711C349.294 185.439 350.47 186.495 352.366 186.495C353.062 186.495 353.542 186.351 353.758 186.255L354.214 184.023C353.926 184.071 353.686 184.095 353.398 184.095C352.438 184.095 352.126 183.663 352.126 183.111C352.126 182.967 352.15 182.775 352.198 182.583L353.35 177.135H355.654L356.182 174.663H353.854L354.646 171.087H352.126L351.766 172.767C351.502 173.943 350.782 174.663 349.438 174.663H349.006L348.478 177.135H350.59L349.486 182.295C349.342 182.919 349.294 183.423 349.294 183.711ZM364.13 183.711C364.13 185.439 365.306 186.495 367.202 186.495C367.898 186.495 368.378 186.351 368.594 186.255L369.05 184.023C368.762 184.071 368.522 184.095 368.234 184.095C367.274 184.095 366.962 183.663 366.962 183.111C366.962 182.967 366.986 182.775 367.034 182.583L368.186 177.135H370.49L371.018 174.663H368.69L369.482 171.087H366.962L366.602 172.767C366.338 173.943 365.618 174.663 364.274 174.663H363.842L363.314 177.135H365.426L364.322 182.295C364.178 182.919 364.13 183.423 364.13 183.711ZM381.564 186.351L383.124 179.127C383.196 178.839 383.244 178.335 383.244 177.903C383.244 175.767 381.9 174.327 379.62 174.327C378.372 174.327 377.22 174.711 376.428 175.623L377.844 168.975H375.06L371.388 186.351H374.148L375.612 179.559C375.924 178.143 376.836 176.799 378.42 176.799C379.692 176.799 380.388 177.519 380.388 178.695C380.388 178.911 380.34 179.175 380.292 179.439L378.804 186.351H381.564ZM388.149 179.223C388.557 177.855 389.661 176.631 391.413 176.631C393.189 176.631 393.789 177.855 393.789 178.863C393.789 178.983 393.765 179.175 393.765 179.223H388.149ZM396.165 181.263C396.333 180.735 396.501 179.919 396.501 179.127C396.501 176.319 394.701 174.303 391.485 174.303C388.293 174.303 385.149 176.967 385.149 181.359C385.149 184.743 387.597 186.711 390.501 186.711C393.093 186.711 394.893 185.343 395.685 183.807L393.549 182.631C393.093 183.519 392.109 184.335 390.573 184.335C388.965 184.335 387.813 183.183 387.813 181.527C387.813 181.431 387.813 181.383 387.837 181.263H396.165ZM414.259 186.351L415.795 179.247C415.891 178.839 415.939 178.335 415.939 177.951C415.939 175.815 414.595 174.327 412.411 174.327C411.115 174.327 409.795 174.759 408.955 175.887C409.051 175.431 409.075 174.807 409.075 174.663H406.387C406.387 174.759 406.363 175.575 406.123 176.679L404.083 186.351H406.843L408.307 179.559C408.619 178.143 409.531 176.799 411.115 176.799C412.387 176.799 413.083 177.519 413.083 178.695C413.083 178.911 413.035 179.175 412.987 179.439L411.499 186.351H414.259ZM420.844 179.223C421.252 177.855 422.356 176.631 424.108 176.631C425.884 176.631 426.484 177.855 426.484 178.863C426.484 178.983 426.46 179.175 426.46 179.223H420.844ZM428.86 181.263C429.028 180.735 429.196 179.919 429.196 179.127C429.196 176.319 427.396 174.303 424.18 174.303C420.988 174.303 417.844 176.967 417.844 181.359C417.844 184.743 420.292 186.711 423.196 186.711C425.788 186.711 427.588 185.343 428.38 183.807L426.244 182.631C425.788 183.519 424.804 184.335 423.268 184.335C421.66 184.335 420.508 183.183 420.508 181.527C420.508 181.431 420.508 181.383 420.532 181.263H428.86ZM435.422 182.487L437.39 186.351H440.414C439.694 185.055 437.966 181.815 437.27 180.495C438.494 179.223 441.542 175.959 442.766 174.663H439.31L436.022 178.383C435.542 177.495 434.606 175.575 434.15 174.663H431.126L434.174 180.375L428.558 186.351H431.99L435.422 182.487ZM443.934 183.711C443.934 185.439 445.11 186.495 447.006 186.495C447.702 186.495 448.182 186.351 448.398 186.255L448.854 184.023C448.566 184.071 448.326 184.095 448.038 184.095C447.078 184.095 446.766 183.663 446.766 183.111C446.766 182.967 446.79 182.775 446.838 182.583L447.99 177.135H450.294L450.822 174.663H448.494L449.286 171.087H446.766L446.406 172.767C446.142 173.943 445.422 174.663 444.078 174.663H443.646L443.118 177.135H445.23L444.126 182.295C443.982 182.919 443.934 183.423 443.934 183.711ZM464.578 176.847C466.186 176.847 467.242 177.855 467.242 179.727C467.242 182.607 465.394 184.191 463.714 184.191C462.13 184.191 461.074 183.135 461.074 181.239C461.074 178.599 462.682 176.847 464.578 176.847ZM462.082 175.935C462.154 175.479 462.178 174.807 462.178 174.663H459.49C459.49 174.759 459.466 175.575 459.226 176.679L456.202 190.911H458.938L460.234 184.767C460.858 185.871 462.25 186.663 463.93 186.663C467.506 186.663 470.05 183.519 470.05 179.367C470.05 176.583 468.586 174.375 465.562 174.375C464.17 174.375 462.826 174.975 462.082 175.935ZM479.941 177.495L480.541 174.615C480.301 174.567 480.013 174.543 479.701 174.543C478.573 174.543 477.061 174.927 476.173 176.271C476.293 175.815 476.341 174.999 476.341 174.663H473.653C473.653 174.759 473.629 175.575 473.389 176.679L471.349 186.351H474.085L475.261 180.879C475.837 178.239 477.325 177.375 478.957 177.375C479.269 177.375 479.605 177.423 479.941 177.495ZM486.968 176.799C488.624 176.823 489.632 177.951 489.632 179.799C489.632 182.703 487.856 184.215 486.128 184.215C484.544 184.215 483.464 183.039 483.464 181.191C483.464 178.527 485.096 176.799 486.968 176.799ZM492.44 179.703C492.44 176.703 490.52 174.303 487.16 174.303C483.56 174.303 480.68 177.207 480.68 181.287C480.68 184.287 482.696 186.711 485.984 186.711C489.728 186.711 492.44 183.567 492.44 179.703ZM493.468 187.383C493.252 188.439 492.82 188.823 491.908 188.823C491.452 188.823 491.044 188.703 490.9 188.655L490.444 190.815C490.564 190.911 491.26 191.271 492.364 191.271C494.236 191.271 495.652 190.143 496.108 188.031L498.94 174.663H496.204L493.468 187.383ZM496.612 170.679C496.612 171.567 497.284 172.287 498.244 172.287C499.228 172.287 500.236 171.447 500.236 170.295C500.236 169.407 499.564 168.711 498.604 168.711C497.572 168.711 496.612 169.575 496.612 170.679ZM503.251 179.223C503.659 177.855 504.763 176.631 506.515 176.631C508.291 176.631 508.891 177.855 508.891 178.863C508.891 178.983 508.867 179.175 508.867 179.223H503.251ZM511.267 181.263C511.435 180.735 511.603 179.919 511.603 179.127C511.603 176.319 509.803 174.303 506.587 174.303C503.395 174.303 500.251 176.967 500.251 181.359C500.251 184.743 502.699 186.711 505.603 186.711C508.195 186.711 509.995 185.343 510.787 183.807L508.651 182.631C508.195 183.519 507.211 184.335 505.675 184.335C504.067 184.335 502.915 183.183 502.915 181.527C502.915 181.431 502.915 181.383 502.939 181.263H511.267ZM524.471 178.119C524.087 176.343 522.695 174.303 519.503 174.303C515.999 174.303 512.999 177.087 512.999 181.263C512.999 184.383 515.135 186.711 518.471 186.711C521.231 186.711 522.983 185.007 523.847 183.207L521.543 182.271C521.039 183.231 520.175 184.215 518.615 184.215C516.911 184.215 515.759 183.063 515.759 181.215C515.759 178.287 517.559 176.823 519.311 176.823C520.895 176.823 521.711 177.831 521.951 178.911L524.471 178.119ZM526.505 183.711C526.505 185.439 527.681 186.495 529.577 186.495C530.273 186.495 530.753 186.351 530.969 186.255L531.425 184.023C531.137 184.071 530.897 184.095 530.609 184.095C529.649 184.095 529.337 183.663 529.337 183.111C529.337 182.967 529.361 182.775 529.409 182.583L530.561 177.135H532.865L533.393 174.663H531.065L531.857 171.087H529.337L528.977 172.767C528.713 173.943 527.993 174.663 526.649 174.663H526.217L525.689 177.135H527.801L526.697 182.295C526.553 182.919 526.505 183.423 526.505 183.711ZM548.397 174.663L544.221 182.679L543.549 174.663H540.885L542.037 186.351H544.917L549.261 177.999L550.317 186.351H553.101L559.197 174.663H556.269L552.309 182.703L551.325 174.663H548.397ZM561.791 170.679C561.791 171.567 562.463 172.287 563.423 172.287C564.431 172.287 565.415 171.447 565.415 170.295C565.415 169.407 564.743 168.711 563.783 168.711C562.751 168.711 561.791 169.575 561.791 170.679ZM561.647 186.351L564.143 174.663H561.383L558.887 186.351H561.647ZM566.442 183.711C566.442 185.439 567.618 186.495 569.514 186.495C570.21 186.495 570.69 186.351 570.906 186.255L571.362 184.023C571.074 184.071 570.834 184.095 570.546 184.095C569.586 184.095 569.274 183.663 569.274 183.111C569.274 182.967 569.298 182.775 569.346 182.583L570.498 177.135H572.802L573.33 174.663H571.002L571.794 171.087H569.274L568.914 172.767C568.65 173.943 567.93 174.663 566.586 174.663H566.154L565.626 177.135H567.738L566.634 182.295C566.49 182.919 566.442 183.423 566.442 183.711ZM583.876 186.351L585.436 179.127C585.508 178.839 585.556 178.335 585.556 177.903C585.556 175.767 584.212 174.327 581.932 174.327C580.684 174.327 579.532 174.711 578.74 175.623L580.156 168.975H577.372L573.7 186.351H576.46L577.924 179.559C578.236 178.143 579.148 176.799 580.732 176.799C582.004 176.799 582.7 177.519 582.7 178.695C582.7 178.911 582.652 179.175 582.604 179.439L581.116 186.351H583.876ZM600.054 176.799C601.71 176.823 602.718 177.951 602.718 179.799C602.718 182.703 600.942 184.215 599.214 184.215C597.63 184.215 596.55 183.039 596.55 181.191C596.55 178.527 598.182 176.799 600.054 176.799ZM605.526 179.703C605.526 176.703 603.606 174.303 600.246 174.303C596.646 174.303 593.766 177.207 593.766 181.287C593.766 184.287 595.782 186.711 599.07 186.711C602.814 186.711 605.526 183.567 605.526 179.703ZM609.025 174.663L607.561 181.503C607.465 181.959 607.417 182.391 607.417 182.799C607.417 185.031 608.785 186.615 611.233 186.615C612.313 186.615 613.561 186.111 614.233 185.079C614.209 185.295 614.209 185.487 614.209 185.655C614.209 185.967 614.233 186.207 614.257 186.351H616.945C616.921 186.087 616.921 185.967 616.921 185.823C616.921 185.079 617.041 184.407 617.185 183.687L619.057 174.663H616.321L614.881 181.479C614.569 182.943 613.657 184.215 612.169 184.215C610.801 184.215 610.249 183.423 610.249 182.319C610.249 182.031 610.297 181.719 610.369 181.383L611.809 174.663H609.025ZM628.792 177.495L629.392 174.615C629.152 174.567 628.864 174.543 628.552 174.543C627.424 174.543 625.912 174.927 625.024 176.271C625.144 175.815 625.192 174.999 625.192 174.663H622.504C622.504 174.759 622.48 175.575 622.24 176.679L620.2 186.351H622.936L624.112 180.879C624.688 178.239 626.176 177.375 627.808 177.375C628.12 177.375 628.456 177.423 628.792 177.495ZM635.286 182.727C635.286 184.119 636.15 186.711 639.798 186.711C642.87 186.711 644.214 184.623 644.214 182.943C644.214 181.551 643.398 180.351 641.694 179.607L640.158 178.935C639.654 178.719 639.342 178.359 639.342 177.783C639.342 177.063 639.942 176.463 640.926 176.463C642.462 176.463 642.87 177.567 642.918 178.287L645.342 177.783C645.27 176.511 644.382 174.303 641.07 174.303C638.406 174.303 636.702 176.127 636.702 178.143C636.702 179.511 637.422 180.591 639.006 181.287L640.494 181.935C641.19 182.247 641.478 182.703 641.478 183.183C641.478 183.855 640.95 184.527 639.822 184.527C638.406 184.527 637.686 183.495 637.686 182.271L635.286 182.727ZM649.43 179.223C649.838 177.855 650.942 176.631 652.694 176.631C654.47 176.631 655.07 177.855 655.07 178.863C655.07 178.983 655.046 179.175 655.046 179.223H649.43ZM657.446 181.263C657.614 180.735 657.782 179.919 657.782 179.127C657.782 176.319 655.982 174.303 652.766 174.303C649.574 174.303 646.43 176.967 646.43 181.359C646.43 184.743 648.878 186.711 651.782 186.711C654.374 186.711 656.174 185.343 656.966 183.807L654.83 182.631C654.374 183.519 653.39 184.335 651.854 184.335C650.246 184.335 649.094 183.183 649.094 181.527C649.094 181.431 649.094 181.383 649.118 181.263H657.446ZM670.65 178.119C670.266 176.343 668.874 174.303 665.682 174.303C662.178 174.303 659.178 177.087 659.178 181.263C659.178 184.383 661.314 186.711 664.65 186.711C667.41 186.711 669.162 185.007 670.026 183.207L667.722 182.271C667.218 183.231 666.354 184.215 664.794 184.215C663.09 184.215 661.938 183.063 661.938 181.215C661.938 178.287 663.738 176.823 665.49 176.823C667.074 176.823 667.89 177.831 668.13 178.911L670.65 178.119ZM677.867 176.799C679.523 176.823 680.531 177.951 680.531 179.799C680.531 182.703 678.755 184.215 677.027 184.215C675.443 184.215 674.363 183.039 674.363 181.191C674.363 178.527 675.995 176.799 677.867 176.799ZM683.339 179.703C683.339 176.703 681.419 174.303 678.059 174.303C674.459 174.303 671.579 177.207 671.579 181.287C671.579 184.287 673.595 186.711 676.883 186.711C680.627 186.711 683.339 183.567 683.339 179.703ZM694.782 186.351L696.318 179.247C696.414 178.839 696.462 178.335 696.462 177.951C696.462 175.815 695.118 174.327 692.934 174.327C691.638 174.327 690.318 174.759 689.478 175.887C689.574 175.431 689.598 174.807 689.598 174.663H686.91C686.91 174.759 686.886 175.575 686.646 176.679L684.606 186.351H687.366L688.83 179.559C689.142 178.143 690.054 176.799 691.638 176.799C692.91 176.799 693.606 177.519 693.606 178.695C693.606 178.911 693.558 179.175 693.51 179.439L692.022 186.351H694.782ZM712.12 168.975H709.36L707.872 176.007C707.44 175.239 706.384 174.351 704.392 174.351C700.912 174.351 698.368 177.519 698.368 181.407C698.368 184.335 700.048 186.567 703.024 186.567C704.488 186.567 705.568 185.775 706.24 184.911C706.216 185.127 706.192 185.415 706.192 185.751C706.192 185.895 706.192 186.135 706.216 186.351H708.784C708.76 186.183 708.76 185.847 708.76 185.775C708.76 185.247 708.832 184.527 709.024 183.567L712.12 168.975ZM704.608 176.799C706.216 176.799 707.056 177.927 707.056 179.511C707.056 182.295 705.52 184.191 703.648 184.191C702.04 184.191 701.152 183.039 701.152 181.335C701.152 179.223 702.352 176.799 704.608 176.799ZM720.758 186.351L721.142 184.599C721.622 185.727 722.966 186.663 724.742 186.663C728.342 186.663 730.91 183.519 730.91 179.367C730.91 176.607 729.398 174.375 726.374 174.375C725.006 174.375 723.782 174.831 723.062 175.623L724.454 168.975H721.718L718.07 186.351H720.758ZM725.39 176.799C727.07 176.799 728.102 177.831 728.102 179.727C728.102 182.607 726.23 184.191 724.526 184.191C722.942 184.191 721.91 182.991 721.91 181.239C721.91 178.599 723.494 176.799 725.39 176.799ZM740.8 177.495L741.4 174.615C741.16 174.567 740.872 174.543 740.56 174.543C739.432 174.543 737.92 174.927 737.032 176.271C737.152 175.815 737.2 174.999 737.2 174.663H734.512C734.512 174.759 734.488 175.575 734.248 176.679L732.208 186.351H734.944L736.12 180.879C736.696 178.239 738.184 177.375 739.816 177.375C740.128 177.375 740.464 177.423 740.8 177.495ZM747.85 176.799C749.458 176.799 750.298 177.927 750.298 179.511C750.298 182.295 748.762 184.191 746.89 184.191C745.282 184.191 744.394 183.039 744.394 181.335C744.394 179.223 745.594 176.799 747.85 176.799ZM751.45 174.663L751.138 176.055C750.754 175.311 749.722 174.351 747.634 174.351C744.154 174.351 741.61 177.519 741.61 181.407C741.61 184.335 743.29 186.567 746.266 186.567C747.73 186.567 748.81 185.775 749.482 184.911C749.434 185.439 749.434 185.583 749.434 185.871C749.434 186.015 749.434 186.135 749.458 186.351H752.05C752.026 186.087 752.026 185.895 752.026 185.775C752.026 185.007 752.122 184.287 752.266 183.567L754.162 174.663H751.45ZM765.423 186.351L766.959 179.247C767.055 178.839 767.103 178.335 767.103 177.951C767.103 175.815 765.759 174.327 763.575 174.327C762.279 174.327 760.959 174.759 760.119 175.887C760.215 175.431 760.239 174.807 760.239 174.663H757.551C757.551 174.759 757.527 175.575 757.287 176.679L755.247 186.351H758.007L759.471 179.559C759.783 178.143 760.695 176.799 762.279 176.799C763.551 176.799 764.247 177.519 764.247 178.695C764.247 178.911 764.199 179.175 764.151 179.439L762.663 186.351H765.423ZM782.76 168.975H780L778.512 176.007C778.08 175.239 777.024 174.351 775.032 174.351C771.552 174.351 769.008 177.519 769.008 181.407C769.008 184.335 770.688 186.567 773.664 186.567C775.128 186.567 776.208 185.775 776.88 184.911C776.856 185.127 776.832 185.415 776.832 185.751C776.832 185.895 776.832 186.135 776.856 186.351H779.424C779.4 186.183 779.4 185.847 779.4 185.775C779.4 185.247 779.472 184.527 779.664 183.567L782.76 168.975ZM775.248 176.799C776.856 176.799 777.696 177.927 777.696 179.511C777.696 182.295 776.16 184.191 774.288 184.191C772.68 184.191 771.792 183.039 771.792 181.335C771.792 179.223 772.992 176.799 775.248 176.799ZM784.444 186.495C785.62 186.495 786.604 185.535 786.604 184.335C786.604 183.399 785.932 182.607 784.828 182.607C783.628 182.607 782.644 183.591 782.644 184.743C782.644 185.679 783.364 186.495 784.444 186.495Z" fill="#292525"/>
<path fill-rule="evenodd" clip-rule="evenodd" d="M363.482 76.4309L372.583 81.9207C373.252 82.3254 374.079 81.7271 373.903 80.9705L371.491 70.6244L379.519 63.6742C380.1 63.1639 379.8 62.1961 379.008 62.1258L368.428 61.2284L364.291 51.4805C363.992 50.7591 362.971 50.7591 362.672 51.4805L358.535 61.2284L347.955 62.1258C347.18 62.1961 346.863 63.1639 347.462 63.6742L355.489 70.6244L353.078 80.9705C352.902 81.7271 353.729 82.3254 354.398 81.9207L363.482 76.4309Z" fill="#FBBE36"/>
<path fill-rule="evenodd" clip-rule="evenodd" d="M446 76.4309L455.101 81.9207C455.77 82.3254 456.598 81.7271 456.422 80.9705L454.01 70.6244L462.037 63.6742C462.618 63.1639 462.319 62.1961 461.527 62.1258L450.947 61.2284L446.81 51.4805C446.511 50.7591 445.49 50.7591 445.19 51.4805L441.053 61.2284L430.473 62.1258C429.699 62.1961 429.382 63.1639 429.981 63.6742L438.008 70.6244L435.596 80.9705C435.42 81.7271 436.248 82.3254 436.916 81.9207L446 76.4309Z" fill="#FBBE36"/>
<path fill-rule="evenodd" clip-rule="evenodd" d="M404.741 76.4309L413.842 81.9207C414.511 82.3254 415.339 81.7271 415.163 80.9705L412.751 70.6244L420.778 63.6742C421.359 63.1639 421.06 62.1961 420.268 62.1258L409.688 61.2284L405.551 51.4805C405.252 50.7591 404.231 50.7591 403.931 51.4805L399.794 61.2284L389.214 62.1258C388.44 62.1961 388.123 63.1639 388.722 63.6742L396.749 70.6244L394.337 80.9705C394.161 81.7271 394.989 82.3254 395.657 81.9207L404.741 76.4309Z" fill="#FBBE36"/>
<path fill-rule="evenodd" clip-rule="evenodd" d="M487.259 76.4309L496.361 81.9207C497.029 82.3254 497.857 81.7271 497.681 80.9705L495.269 70.6244L503.296 63.6742C503.877 63.1639 503.578 62.1961 502.786 62.1258L492.206 61.2284L488.069 51.4805C487.77 50.7591 486.749 50.7591 486.45 51.4805L482.313 61.2284L471.733 62.1258C470.958 62.1961 470.641 63.1639 471.24 63.6742L479.267 70.6244L476.855 80.9705C476.679 81.7271 477.507 82.3254 478.176 81.9207L487.259 76.4309Z" fill="#FBBE36"/>
<path fill-rule="evenodd" clip-rule="evenodd" d="M528.518 76.4309L537.62 81.9207C538.289 82.3254 539.116 81.7271 538.94 80.9705L536.528 70.6244L544.556 63.6742C545.136 63.1639 544.837 62.1961 544.045 62.1258L533.465 61.2284L529.328 51.4805C529.029 50.7591 528.008 50.7591 527.709 51.4805L523.572 61.2284L512.992 62.1258C512.217 62.1961 511.9 63.1639 512.499 63.6742L520.526 70.6244L518.115 80.9705C517.938 81.7271 518.766 82.3254 519.435 81.9207L528.518 76.4309Z" fill="#FBBE36"/>
<path d="M422.984 26.9488L427.112 26.0208C427.155 27.0022 427.518 27.8342 428.2 28.5168C428.904 29.1782 429.8 29.5088 430.888 29.5088C431.912 29.5088 432.766 29.1995 433.448 28.5808C434.131 27.9622 434.472 27.1408 434.472 26.1168C434.472 24.9862 434.11 24.1222 433.384 23.5248C432.68 22.9275 431.816 22.6288 430.792 22.6288C429.491 22.6288 428.424 23.0982 427.592 24.0368C426.078 23.4608 424.734 23.0022 423.56 22.6608L426.024 12.0048H437.736V15.8128H429.032L428.008 20.3888C428.926 19.5355 430.174 19.1088 431.752 19.1088C433.886 19.1088 435.603 19.7275 436.904 20.9648C438.206 22.1808 438.856 23.8768 438.856 26.0528C438.856 28.0582 438.131 29.7648 436.68 31.1728C435.23 32.5808 433.299 33.2848 430.888 33.2848C428.712 33.2848 426.878 32.6555 425.384 31.3968C423.912 30.1382 423.112 28.6555 422.984 26.9488ZM442.974 32.1648C442.398 31.5888 442.11 30.8955 442.11 30.0848C442.11 29.2742 442.398 28.5915 442.974 28.0368C443.55 27.4608 444.233 27.1728 445.022 27.1728C445.833 27.1728 446.526 27.4608 447.102 28.0368C447.678 28.5915 447.966 29.2742 447.966 30.0848C447.966 30.8955 447.678 31.5888 447.102 32.1648C446.526 32.7195 445.833 32.9968 445.022 32.9968C444.233 32.9968 443.55 32.7195 442.974 32.1648ZM456.823 17.1248C456.076 18.2982 455.703 20.0582 455.703 22.4048C455.703 24.7515 456.076 26.5115 456.823 27.6848C457.527 28.8155 458.572 29.3808 459.959 29.3808C461.324 29.3808 462.359 28.8155 463.063 27.6848C463.831 26.5328 464.215 24.7728 464.215 22.4048C464.215 20.0368 463.831 18.2768 463.063 17.1248C462.359 15.9942 461.324 15.4288 459.959 15.4288C458.572 15.4288 457.527 15.9942 456.823 17.1248ZM453.111 29.7968C451.895 27.9408 451.287 25.4768 451.287 22.4048C451.287 19.3328 451.895 16.8688 453.111 15.0128C454.668 12.6875 456.951 11.5248 459.959 11.5248C462.967 11.5248 465.239 12.6875 466.775 15.0128C468.012 16.8902 468.631 19.3542 468.631 22.4048C468.631 25.4555 468.012 27.9195 466.775 29.7968C465.239 32.1222 462.967 33.2848 459.959 33.2848C456.951 33.2848 454.668 32.1222 453.111 29.7968Z" fill="black"/>
</svg>
